<?xml version="1.0" encoding="UTF-8" standalone="no"?>
<!-- Created with Inkscape (http://www.inkscape.org/) -->

<svg
   width="20.32mm"
   height="128.5mm"
   viewBox="0 0 20.319999 128.5"
   version="1.1"
   id="svg1"
   inkscape:version="1.3.2 (091e20e, 2023-11-25)"
   sodipodi:docname="sinmodule.svg"
   xml:space="preserve"
   xmlns:inkscape="http://www.inkscape.org/namespaces/inkscape"
   xmlns:sodipodi="http://sodipodi.sourceforge.net/DTD/sodipodi-0.dtd"
   xmlns="http://www.w3.org/2000/svg"
   xmlns:svg="http://www.w3.org/2000/svg"><sodipodi:namedview
     id="namedview1"
     pagecolor="#ffffff"
     bordercolor="#000000"
     borderopacity="0.25"
     inkscape:showpageshadow="2"
     inkscape:pageopacity="0.0"
     inkscape:pagecheckerboard="0"
     inkscape:deskcolor="#d1d1d1"
     inkscape:document-units="mm"
     inkscape:zoom="1.6820162"
     inkscape:cx="8.6206065"
     inkscape:cy="235.13447"
     inkscape:window-width="2536"
     inkscape:window-height="1038"
     inkscape:window-x="0"
     inkscape:window-y="25"
     inkscape:window-maximized="0"
     inkscape:current-layer="layer2" /><defs
     id="defs1" /><g
     inkscape:label="Ebene 1"
     inkscape:groupmode="layer"
     id="layer1"><rect
       style="fill:#ffeeaa;stroke:#ff0000;stroke-width:0.101296"
       id="hintergrund"
       width="20.218704"
       height="128.3987"
       x="0.050648089"
       y="0.050648089"
       inkscape:label="hintergrund"
       sodipodi:insensitive="true" /><g
       id="text1"
       style="font-size:4.93889px;-inkscape-font-specification:'sans-serif, Normal';stroke-width:0.264583"
       aria-label="Super&#10;Sonic"><path
         d="m 6.2952908,10.033923 q 0,0.209806 -0.098874,0.414789 -0.096463,0.204984 -0.2725072,0.347266 -0.1929254,0.15434 -0.4509631,0.241157 -0.2556261,0.08682 -0.6173612,0.08682 -0.3882624,0 -0.6993545,-0.07235 -0.3086807,-0.07235 -0.6294191,-0.214629 v -0.598069 h 0.033762 q 0.2725071,0.226687 0.6294191,0.349677 0.356912,0.12299 0.6704157,0.12299 0.4437284,0 0.6897083,-0.166398 0.2483914,-0.166398 0.2483914,-0.443728 0,-0.2387456 -0.1181668,-0.3520892 Q 5.5645859,9.6360141 5.3258407,9.5733133 5.1449732,9.525082 4.9327552,9.4937316 4.7229489,9.4623812 4.4866153,9.4141499 4.0091249,9.3128641 3.7776145,9.0692958 3.5485156,8.8233159 3.5485156,8.4302304 q 0,-0.4509631 0.3810276,-0.7379396 0.3810277,-0.2893881 0.9670385,-0.2893881 0.3786161,0 0.6945314,0.072347 0.3159154,0.072347 0.5594837,0.178456 V 8.2180125 H 6.1168348 Q 5.9118516,8.0443796 5.5766437,7.931036 5.2438474,7.8152807 4.8941702,7.8152807 q -0.3834392,0 -0.6173613,0.1591635 -0.2315104,0.1591634 -0.2315104,0.4099664 0,0.2242758 0.1157552,0.3520889 0.1157552,0.127813 0.4075549,0.1953369 0.1543403,0.033762 0.4389052,0.081993 0.284565,0.048231 0.4823135,0.098874 0.4003202,0.1061089 0.6028919,0.3207384 0.2025716,0.2146295 0.2025716,0.6004806 z M 9.259107,11.058839 H 8.8057324 v -0.299035 q -0.2290989,0.180868 -0.4389053,0.277331 -0.2098064,0.09646 -0.4630209,0.09646 -0.4244359,0 -0.6607695,-0.258037 Q 7.0067031,10.61511 7.0067031,10.113504 V 8.3651181 h 0.4533747 v 1.5337568 q 0,0.2049831 0.019293,0.3520891 0.019292,0.144694 0.081993,0.248391 0.065112,0.106109 0.1688097,0.154341 0.1036974,0.04823 0.3014459,0.04823 0.1760445,0 0.3834393,-0.09164 0.2098063,-0.09164 0.3906739,-0.233922 V 8.3651181 H 9.259107 Z m 3.262851,-1.3794167 q 0,0.3279727 -0.09405,0.6004807 -0.09405,0.270095 -0.265272,0.458197 -0.159163,0.178456 -0.376204,0.277331 -0.21463,0.09646 -0.455787,0.09646 -0.209806,0 -0.381027,-0.04582 -0.16881,-0.04582 -0.344854,-0.142283 v 1.128614 H 10.151387 V 8.3651181 h 0.453375 v 0.2821534 q 0.180867,-0.1519288 0.405143,-0.2532146 0.226687,-0.1036974 0.482313,-0.1036974 0.487137,0 0.757233,0.3689698 0.272507,0.3665582 0.272507,1.020093 z m -0.467844,0.012058 q 0,-0.4871366 -0.166399,-0.7282933 -0.166398,-0.2411567 -0.511252,-0.2411567 -0.195337,0 -0.393085,0.084405 -0.197749,0.084405 -0.378616,0.2218642 v 1.5265219 q 0.192925,0.08682 0.330384,0.118167 0.139871,0.03135 0.315916,0.03135 0.378616,0 0.590834,-0.255626 0.212218,-0.255626 0.212218,-0.7572319 z m 3.429248,0.067524 h -1.98472 q 0,0.248391 0.07476,0.434082 0.07476,0.183279 0.204984,0.301446 0.125401,0.115755 0.296622,0.173633 0.173633,0.05788 0.381028,0.05788 0.274919,0 0.552249,-0.108521 0.279742,-0.110932 0.397909,-0.217041 h 0.02412 v 0.494371 q -0.229099,0.09646 -0.467844,0.161575 -0.238745,0.06511 -0.501606,0.06511 -0.670416,0 -1.04662,-0.361736 -0.376205,-0.364146 -0.376205,-1.0321503 0,-0.6607695 0.359324,-1.0490319 0.361735,-0.3882623 0.950158,-0.3882623 0.545014,0 0.839225,0.3183269 0.296623,0.3183269 0.296623,0.9043378 z M 15.042045,9.4117383 q -0.0024,-0.3569119 -0.180868,-0.5522489 -0.176044,-0.195337 -0.537779,-0.195337 -0.364147,0 -0.581188,0.2146295 -0.214629,0.2146295 -0.243568,0.5329564 z m 2.809477,-0.5522489 h -0.02412 q -0.101286,-0.024116 -0.197749,-0.033762 -0.09405,-0.012058 -0.224275,-0.012058 -0.209807,0 -0.405144,0.094051 -0.195337,0.09164 -0.376204,0.2387452 V 11.058839 H 16.170659 V 8.3651181 h 0.453375 v 0.3979086 q 0.270095,-0.2170411 0.475079,-0.3062691 0.207394,-0.091639 0.422024,-0.091639 0.118167,0 0.171221,0.00723 0.05306,0.00482 0.159164,0.021704 z"
         id="path6" /><path
         d="m 6.2952908,16.207535 q 0,0.209807 -0.098874,0.41479 -0.096463,0.204983 -0.2725072,0.347265 -0.1929254,0.154341 -0.4509631,0.241157 -0.2556261,0.08682 -0.6173612,0.08682 -0.3882624,0 -0.6993545,-0.07235 -0.3086807,-0.07235 -0.6294191,-0.21463 v -0.598069 h 0.033762 q 0.2725071,0.226688 0.6294191,0.349678 0.356912,0.12299 0.6704157,0.12299 0.4437284,0 0.6897083,-0.166399 0.2483914,-0.166398 0.2483914,-0.443728 0,-0.238745 -0.1181668,-0.352089 Q 5.5645859,15.809627 5.3258407,15.746926 5.1449732,15.698694 4.9327552,15.667344 4.7229489,15.635994 4.4866153,15.587762 4.0091249,15.486477 3.7776145,15.242908 3.5485156,14.996928 3.5485156,14.603843 q 0,-0.450963 0.3810276,-0.73794 0.3810277,-0.289388 0.9670385,-0.289388 0.3786161,0 0.6945314,0.07235 0.3159154,0.07235 0.5594837,0.178456 v 0.564307 H 6.1168348 Q 5.9118516,14.217992 5.5766437,14.104648 5.2438474,13.988893 4.8941702,13.988893 q -0.3834392,0 -0.6173613,0.159164 -0.2315104,0.159163 -0.2315104,0.409966 0,0.224276 0.1157552,0.352089 0.1157552,0.127813 0.4075549,0.195337 0.1543403,0.03376 0.4389052,0.08199 0.284565,0.04823 0.4823135,0.09887 0.4003202,0.106109 0.6028919,0.320739 0.2025716,0.214629 0.2025716,0.60048 z m 3.026517,-0.320738 q 0,0.658358 -0.3376194,1.039385 -0.3376195,0.381028 -0.9043378,0.381028 -0.5715415,0 -0.9091609,-0.381028 -0.3352079,-0.381027 -0.3352079,-1.039385 0,-0.658358 0.3352079,-1.039386 0.3376194,-0.383439 0.9091609,-0.383439 0.5667183,0 0.9043378,0.383439 0.3376194,0.381028 0.3376194,1.039386 z m -0.4678441,0 q 0,-0.52331 -0.2049832,-0.776525 -0.2049832,-0.255626 -0.5691299,-0.255626 -0.3689698,0 -0.573953,0.255626 -0.2025717,0.253215 -0.2025717,0.776525 0,0.506429 0.2049832,0.76929 0.2049832,0.260449 0.5715415,0.260449 0.3617351,0 0.5667183,-0.258038 0.2073948,-0.260449 0.2073948,-0.771701 z m 3.4220143,1.345654 h -0.453375 v -1.533757 q 0,-0.18569 -0.0217,-0.347265 -0.0217,-0.163987 -0.07958,-0.255626 -0.06029,-0.101286 -0.173632,-0.149518 -0.113344,-0.05064 -0.294212,-0.05064 -0.18569,0 -0.388262,0.09164 -0.202572,0.09164 -0.388262,0.233922 v 2.011247 h -0.453375 v -2.69372 h 0.453375 v 0.299034 q 0.212218,-0.176045 0.438905,-0.274919 0.226687,-0.09887 0.465432,-0.09887 0.436494,0 0.665593,0.262861 0.229099,0.262861 0.229099,0.757232 z m 1.360124,-3.144684 h -0.511253 v -0.470255 h 0.511253 z m -0.02894,3.144684 h -0.453375 v -2.69372 h 0.453375 z m 2.889058,-0.168809 q -0.226688,0.10852 -0.431671,0.168809 -0.202572,0.06029 -0.431671,0.06029 -0.291799,0 -0.535367,-0.08441 -0.243569,-0.08682 -0.417202,-0.26045 -0.176044,-0.173632 -0.272507,-0.438905 -0.09646,-0.265272 -0.09646,-0.619773 0,-0.660769 0.361735,-1.036974 0.364146,-0.376204 0.959803,-0.376204 0.231511,0 0.453375,0.06511 0.224276,0.06511 0.409967,0.159164 v 0.504017 h -0.02412 q -0.207395,-0.161575 -0.429259,-0.248391 -0.219453,-0.08682 -0.429259,-0.08682 -0.385851,0 -0.610127,0.26045 -0.221864,0.258037 -0.221864,0.759643 0,0.487137 0.217041,0.749998 0.219453,0.260449 0.61495,0.260449 0.137459,0 0.279742,-0.03617 0.142282,-0.03617 0.255626,-0.09405 0.09887,-0.05064 0.185691,-0.106109 0.08682,-0.05788 0.137459,-0.09887 h 0.02412 z"
         id="path7" /></g><path
       style="fill:#000000"
       d="m 9.3268961,123.59452 c -0.282318,-0.0861 -0.471234,-0.24351 -0.597478,-0.49798 -0.10821,-0.21812 -0.136242,-0.48088 -0.07156,-0.67072 0.04711,-0.13827 0.216921,-0.30847 0.341283,-0.34208 0.120703,-0.0326 0.292343,-0.0132 0.384047,0.0435 0.118806,0.0734 0.230341,0.23103 0.258088,0.36469 0.07226,0.34808 -0.15912,0.69296 -0.470533,0.70131 l -0.08839,0.002 0.03271,0.0519 c 0.102347,0.16245 0.227909,0.22856 0.433591,0.22827 0.341208,-4.8e-4 0.6289629,-0.28008 0.7479329,-0.72674 0.04631,-0.17387 0.05654,-0.56167 0.02055,-0.77897 -0.01515,-0.0914 -0.03352,-0.25033 -0.04082,-0.35309 -0.0073,-0.10275 -0.0182,-0.21954 -0.02422,-0.25952 l -0.01094,-0.0727 -0.3365489,-0.001 c -0.311346,-10e-4 -0.348013,-0.005 -0.489641,-0.0567 -0.253828,-0.0922 -0.414114,-0.19479 -0.605005,-0.38734 -0.389745,-0.39314 -0.58133,-0.9042 -0.581488,-1.55115 -1.03e-4,-0.42506 0.0789,-0.77145 0.256106,-1.12284 0.242107,-0.4801 0.688287,-1.01 1.162775,-1.38097 l 0.141605,-0.11071 0.0057,-0.68541 c 0.0077,-0.93314 0.06095,-1.26942 0.2695639,-1.70312 0.128848,-0.26787 0.264858,-0.44012 0.395574,-0.50099 0.122997,-0.0573 0.174989,-0.0604 0.314926,-0.0188 0.198974,0.0591 0.304905,0.23373 0.397187,0.65481 0.05424,0.24752 0.04799,0.83042 -0.01259,1.1735 -0.05155,0.29197 -0.184228,0.72274 -0.294257,0.95541 -0.165315,0.34957 -0.405788,0.66921 -0.608506,0.80882 -0.09095,0.0626 -0.114533,0.0898 -0.10752,0.1238 0.0049,0.024 0.02487,0.24092 0.04429,0.48213 l 0.0353,0.43858 0.149086,0.0126 c 0.174785,0.0148 0.394942,0.0978 0.530826,0.20027 0.111381,0.084 0.261946,0.25982 0.325722,0.38045 0.264796,0.50083 0.211031,1.23328 -0.127047,1.73081 -0.130598,0.19219 -0.354889,0.37753 -0.552617,0.45664 l -0.08705,0.0348 0.01231,0.10598 c 0.04797,0.41298 0.09731,1.14676 0.08642,1.2853 -0.02289,0.29118 -0.141833,0.58259 -0.309644,0.75863 -0.224755,0.23577 -0.5995419,0.32704 -0.9297239,0.22639 z m 0.8901719,-2.49496 c 0.01629,-0.016 0.01252,-0.10058 -0.02602,-0.58324 -0.02352,-0.29461 -0.03631,-0.45805 -0.07204,-0.92101 -0.02147,-0.27808 -0.04323,-0.50981 -0.04837,-0.51494 -0.01938,-0.0194 -0.2250059,0.0741 -0.3258269,0.14807 -0.128781,0.0945 -0.212414,0.21284 -0.268814,0.38026 -0.101029,0.29991 -0.0042,0.6452 0.251498,0.8969 0.11713,0.1153 0.09591,0.13602 -0.04632,0.0452 -0.276786,-0.17669 -0.449757,-0.51446 -0.470748,-0.91925 -0.02966,-0.57201 0.226395,-0.99834 0.690932,-1.15041 0.067998,-0.0223 0.1251829,-0.0408 0.1270649,-0.0412 0.0019,-3.8e-4 -0.01214,-0.20858 -0.03116,-0.46267 l -0.03458,-0.46199 -0.1246185,0.0824 c -0.176476,0.11664 -0.210051,0.14186 -0.36265,0.27245 -0.495602,0.42411 -0.850835,0.94562 -0.932367,1.3688 -0.06091,0.31613 -0.04596,0.59038 0.04836,0.88739 0.196883,0.61999 0.801674,1.03126 1.4543549,0.98899 0.09139,-0.006 0.168469,-0.013 0.171292,-0.0158 z m 0.463264,-0.19986 c 0.112302,-0.0889 0.248219,-0.24602 0.282347,-0.3263 0.08126,-0.19115 0.115943,-0.6066 0.06801,-0.8146 -0.03485,-0.15126 -0.135573,-0.33924 -0.238506,-0.44515 -0.104945,-0.10797 -0.353507,-0.24083 -0.450571,-0.24083 -0.05747,0 -0.05823,0.002 -0.04682,0.0986 0.01376,0.11708 0.155994,1.7802 0.155994,1.82402 0,0.0263 0.0097,0.0262 0.07453,-9e-4 0.04099,-0.0171 0.110747,-0.0598 0.155018,-0.0949 z m -0.326227,-4.71261 c 0.388218,-0.37213 0.644091,-0.8702 0.646185,-1.25785 0.0013,-0.24472 -0.09807,-0.45698 -0.236604,-0.50527 -0.05328,-0.0186 -0.08036,-0.0127 -0.186995,0.0406 -0.390781,0.19528 -0.56207,0.71823 -0.56207,1.71602 v 0.27724 l 0.09866,-0.0672 c 0.05426,-0.037 0.162633,-0.12855 0.240827,-0.2035 z m -5.0749939,5.41964 v -0.0623 h 0.144609 c 0.336932,0 0.628557,-0.21452 0.716485,-0.52706 0.01647,-0.0585 0.100959,-0.71394 0.187759,-1.45645 0.0868,-0.74252 0.232404,-1.97158 0.323566,-2.73123 0.09116,-0.75966 0.170311,-1.42325 0.175888,-1.47466 0.0056,-0.0514 0.0154,-0.13085 0.02183,-0.17654 0.01916,-0.13618 0.02478,-0.18081 0.03923,-0.31155 0.0076,-0.0685 0.01776,-0.15265 0.02263,-0.18692 0.0049,-0.0343 0.02242,-0.17914 0.039,-0.32194 0.06438,-0.55455 0.05224,-0.50142 0.113007,-0.49437 0.05536,0.006 0.06877,0.0273 0.370423,0.57745 0.04072,0.0743 0.150544,0.27053 0.244064,0.43617 0.09352,0.16564 0.202866,0.36191 0.242992,0.43616 0.04013,0.0743 0.09156,0.16772 0.114308,0.2077 0.02274,0.04 0.07216,0.12877 0.109804,0.19731 0.03765,0.0686 0.07532,0.13397 0.08371,0.14539 0.02508,0.0342 0.642618,1.14865 0.648675,1.1707 0.0031,0.0112 -0.05194,0.0891 -0.122247,0.1732 -0.333137,0.39836 -0.59929,0.86474 -0.71763,1.25752 -0.01463,0.0486 -0.03133,0.0882 -0.03712,0.0881 -0.0058,-9e-5 -0.03233,-0.0398 -0.05899,-0.0883 -0.06962,-0.12655 -0.307393,-0.56316 -0.392956,-0.72158 -0.04011,-0.0742 -0.09868,-0.18174 -0.130166,-0.23885 -0.03149,-0.0571 -0.07901,-0.14566 -0.105619,-0.19676 l -0.04837,-0.0929 -0.02549,0.19675 c -0.01402,0.10822 -0.02601,0.23236 -0.02664,0.27587 -6.33e-4,0.0435 -0.0082,0.0748 -0.01673,0.0695 -0.0086,-0.005 -0.01776,0.0152 -0.02043,0.0455 -0.0027,0.0303 -0.07885,0.79554 -0.16929,1.70054 -0.109079,1.09153 -0.158966,1.66968 -0.148194,1.71744 0.04377,0.19405 0.182026,0.30736 0.395035,0.32375 0.128867,0.01 0.135303,0.013 0.141576,0.0675 l 0.0066,0.0571 h -1.060636 -1.060638 z m 6.7369219,0.0311 c -0.027,-0.0703 0.0079,-0.0934 0.142418,-0.0941 0.171395,-9.1e-4 0.271076,-0.0662 0.356759,-0.23376 l 0.06062,-0.11854 -0.02403,-0.23371 c -0.01322,-0.12854 -0.05218,-0.52345 -0.08658,-0.87757 -0.0344,-0.35413 -0.06668,-0.66723 -0.07174,-0.69579 -0.0051,-0.0286 -0.01532,-0.13137 -0.02282,-0.22847 -0.0075,-0.0971 -0.01625,-0.19056 -0.01945,-0.20769 -0.0032,-0.0171 -0.01254,-0.1106 -0.02077,-0.2077 -0.0082,-0.0971 -0.01771,-0.19106 -0.02108,-0.2088 -0.0034,-0.0177 -0.01237,-0.11588 -0.02,-0.21808 -0.0076,-0.10221 -0.01736,-0.19985 -0.0216,-0.21698 -0.0042,-0.0171 -0.014,-0.10593 -0.02168,-0.19732 -0.0077,-0.0914 -0.01651,-0.18018 -0.01963,-0.19731 -0.0031,-0.0171 -0.0123,-0.10898 -0.02041,-0.20409 -0.0081,-0.0951 -0.01777,-0.18858 -0.02147,-0.2077 -0.0037,-0.0191 -0.0076,-0.0581 -0.0088,-0.0867 -0.0026,-0.065 -0.0088,-0.0542 -0.458062,0.79477 l -0.338143,0.63899 -0.111796,-0.12353 c -0.09642,-0.10656 -0.310349,-0.27247 -0.382193,-0.29641 -0.01334,-0.004 0.03319,-0.11213 0.110767,-0.25631 0.07357,-0.13676 0.19297,-0.3608 0.265324,-0.49788 0.07235,-0.13708 0.289624,-0.54365 0.482822,-0.90349 0.193197,-0.35984 0.393508,-0.73369 0.445135,-0.83079 0.09834,-0.18496 0.20095,-0.37549 0.296416,-0.5504 0.03118,-0.0571 0.10135,-0.18797 0.155946,-0.29078 0.0546,-0.10281 0.129292,-0.243 0.165992,-0.31154 0.13525,-0.25259 0.333068,-0.62431 0.353703,-0.66464 0.01169,-0.0228 0.04674,-0.0445 0.07789,-0.0481 0.04953,-0.006 0.05683,7.7e-4 0.05818,0.0519 8.49e-4,0.0322 0.0051,0.0772 0.0094,0.10003 0.0065,0.0347 0.08723,0.66704 0.121911,0.95541 0.0055,0.0457 0.131596,1.07847 0.280226,2.29506 0.148629,1.21659 0.308532,2.52976 0.35534,2.91816 0.04681,0.38839 0.09927,0.75758 0.116576,0.82041 0.08939,0.32447 0.380141,0.54001 0.728452,0.54001 h 0.131233 v 0.0623 0.0623 h -1.506461 c -1.319917,0 -1.507941,-0.004 -1.518416,-0.0312 z"
       id="path5" /></g><g
     inkscape:groupmode="layer"
     id="layer2"
     inkscape:label="components"><circle
       style="fill:#ff0000;fill-opacity:1;stroke:none;stroke-width:0.264583;stroke-opacity:1"
       id="path8"
       cx="10.16"
       cy="38.774769"
       r="3.0673752"
       inkscape:label="freq" /><circle
       style="fill:#00ff00;fill-opacity:1;stroke:none;stroke-width:0.264583;stroke-opacity:1"
       id="path8-0"
       cx="10.16"
       cy="52.922554"
       r="3.0673752"
       inkscape:label="cvoct" /><circle
       style="fill:#0000ff;fill-opacity:1;stroke:none;stroke-width:0.264583;stroke-opacity:1"
       id="path8-0-0"
       cx="10.16"
       cy="67.070343"
       r="3.0673752"
       inkscape:label="sin" /><circle
       style="fill:#ff00ff;fill-opacity:1;stroke:none;stroke-width:0.264583;stroke-opacity:1"
       id="path8-0-0-5"
       cx="10.16"
       cy="108.20562"
       r="3.0673752"
       inkscape:label="led" /></g></svg>
